<svg id="Camada_1" data-name="Camada 1" xmlns="http://www.w3.org/2000/svg" viewBox="0 0 420.99 490.41"><defs><style>.cls-1{fill:#17b978;}</style></defs><g id="modelo3"><path class="cls-1" d="M234.7,419.58c0,6.17-.15,12.34.06,18.5.14,4.06-1.54,5.51-5.52,6.05C127.42,458,35.19,390.24,19,288.22c-3-18.69-.51-38.26-.35-57.42,0-3.57,1.07-6.29,6.07-6.32C62.2,224.21,99.1,227.17,134.1,242c47.57,20.2,76.43,56.83,91.19,105.26C232.43,370.75,234.59,395.08,234.7,419.58Zm-36.14-10.9c-2-14.17-2.95-27.2-5.79-39.81-8.28-36.76-27-66.42-60.93-84.93-22.6-12.31-47.45-15.94-72.51-18.77-5.33-.6-5.44,2.43-5.07,6.4,3.91,42.09,21.67,76.95,54.42,103.86C134.11,396.33,163.56,406.73,198.56,408.68Z"/><path class="cls-1" d="M347.07,248.73c-8.36,2.69-17,4.71-25,8.2-29.75,12.95-54.84,32-74,58.46a49.87,49.87,0,0,1-3.48,3.93c-8.18-13.39-16.44-26.48-24.05-39.92-.93-1.65.77-6,2.58-7.81,18-17.59,39.84-28.76,63.74-36,29.8-9.08,60.41-11.38,91.38-11.07,4.88.05,6.48,2,7,6.27,8.73,76.47-17.09,138-79.93,183-10.91,7.81-23.68,13-35.67,19.31-2.3,1.21-5,1.71-7.87,2.68-.65-13.6-.3-26.48-2.06-39.06-4.22-30.19,10.34-54.55,23.84-79,14.87-26.95,36.07-48.58,61.09-66.46a17.13,17.13,0,0,0,2.4-2.61,2.39,2.39,0,0,0,.52-.22c.08-.06.07-.24.11-.36Z"/><path class="cls-1" d="M27.27,197.15c34-101.92,178.31-172.34,294.15-76.59,2.95-3.44,5.77-7,8.91-10.34,6.44-6.81,11.66-6.4,15.37,2q14.82,33.47,28.74,67.34c2.93,7.1-1.15,12-8.71,10.94-23.63-3.41-47.27-6.89-70.82-10.81-10.85-1.81-12.5-6.83-6.17-16,8-11.56,8-11.56-3.34-19.78-71.2-51.53-173.1-27-212.85,51.32-2.46,4.84-4.89,5.94-10.28,5.14C50.9,198.68,39.34,198.18,27.27,197.15Z"/></g></svg>