<svg id="Camada_1" data-name="Camada 1" xmlns="http://www.w3.org/2000/svg" viewBox="0 0 415.62 490.41"><defs><style>.cls-1{fill:#63d2a2;}.cls-2{fill:#62d2a2;}</style></defs><path class="cls-1" d="M246.8,407.75c0,6.17-.16,12.34,0,18.5.14,4.06-1.54,5.51-5.51,6.05C139.51,446.18,47.28,378.42,31.11,276.4c-3-18.7-.5-38.27-.35-57.43,0-3.57,1.08-6.28,6.08-6.32,37.46-.27,74.35,2.69,109.36,17.56,47.56,20.19,76.43,56.82,91.18,105.26C244.53,358.92,246.69,383.26,246.8,407.75Zm-36.15-10.9c-2-14.17-3-27.2-5.79-39.81-8.28-36.76-27-66.42-60.92-84.92-22.61-12.32-47.45-15.95-72.52-18.78-5.33-.6-5.44,2.43-5.07,6.4C70.26,301.83,88,336.69,120.77,363.6,146.2,384.5,175.66,394.9,210.65,396.85Z"/><path class="cls-1" d="M359.17,236.9c-8.37,2.69-17,4.71-25,8.2-29.75,13-54.84,32-74,58.46a46.5,46.5,0,0,1-3.48,3.93c-8.18-13.39-16.43-26.47-24-39.92-.94-1.65.76-6.05,2.57-7.81,18-17.59,39.84-28.76,63.75-36,29.79-9.08,60.41-11.38,91.37-11.07,4.89.05,6.48,2,7,6.27,8.72,76.47-17.1,138-79.94,183-10.91,7.81-23.68,13-35.67,19.32-2.29,1.2-5,1.7-7.87,2.67-.65-13.6-.3-26.48-2.06-39.06-4.21-30.19,10.35-54.55,23.84-79,14.88-26.95,36.07-48.58,61.09-66.46a16.17,16.17,0,0,0,2.4-2.61,2,2,0,0,0,.52-.22c.08-.06.08-.24.11-.36Z"/><path class="cls-1" d="M39.36,185.32C73.33,83.4,217.67,13,333.52,108.73c2.94-3.44,5.77-7,8.9-10.34,6.45-6.81,11.66-6.4,15.37,2q14.82,33.48,28.75,67.34c2.92,7.1-1.16,12-8.71,10.94-23.64-3.41-47.27-6.89-70.83-10.81-10.84-1.8-12.5-6.83-6.16-16,8-11.56,8-11.56-3.34-19.78-71.21-51.53-173.11-27-212.86,51.32-2.45,4.84-4.89,5.94-10.27,5.14C63,186.85,51.43,186.35,39.36,185.32Z"/><g id="modelo1"><path class="cls-2" d="M247,410.65c0,6.16-.15,12.33.06,18.49.14,4.06-1.54,5.51-5.52,6.06-101.82,13.87-194-53.89-210.22-155.91-3-18.7-.51-38.27-.35-57.43,0-3.57,1.08-6.28,6.07-6.32,37.46-.27,74.36,2.69,109.36,17.56,47.57,20.2,76.43,56.82,91.19,105.26C244.77,361.81,246.93,386.15,247,410.65Zm-36.14-10.9c-2-14.18-3-27.21-5.79-39.81-8.28-36.77-27-66.42-60.93-84.93-22.6-12.32-47.45-15.95-72.51-18.78-5.33-.6-5.44,2.43-5.07,6.4,3.91,42.09,21.67,76.95,54.42,103.86C146.45,387.39,175.9,397.79,210.9,399.75Z"/><path class="cls-2" d="M359.41,239.79c-8.36,2.69-17,4.71-25,8.2-29.75,12.95-54.84,32-74,58.46a46.5,46.5,0,0,1-3.48,3.93c-8.18-13.39-16.43-26.47-24-39.92-.93-1.65.77-6,2.58-7.81,18-17.59,39.84-28.76,63.74-36,29.8-9.08,60.41-11.38,91.38-11.06,4.88,0,6.48,2,7,6.26,8.73,76.47-17.09,138-79.93,183-10.91,7.81-23.68,13-35.67,19.32-2.3,1.2-5,1.7-7.87,2.67-.65-13.6-.3-26.48-2.06-39.06-4.22-30.19,10.34-54.55,23.84-79,14.87-26.95,36.07-48.58,61.09-66.46a17.13,17.13,0,0,0,2.4-2.61,2.39,2.39,0,0,0,.52-.22c.08-.06.08-.23.11-.36Z"/><path class="cls-2" d="M39.61,188.21c34-101.92,178.31-172.34,294.15-76.59,2.95-3.44,5.77-7,8.91-10.34,6.44-6.81,11.66-6.4,15.37,2q14.82,33.48,28.74,67.34c2.93,7.1-1.15,12-8.71,10.94-23.63-3.41-47.27-6.89-70.82-10.81-10.85-1.8-12.5-6.83-6.17-16,8-11.56,8-11.56-3.34-19.78-71.2-51.53-173.1-27-212.85,51.32-2.46,4.84-4.89,5.94-10.28,5.14C63.24,189.74,51.68,189.25,39.61,188.21Z"/></g></svg>